<svg preserveAspectRatio="none" overflow="visible" style="display: block;" width="350.001" height="348.538" viewBox="0 0 350.001 348.538" fill="none" xmlns="http://www.w3.org/2000/svg">
<g id="icon">
<path id="Union" d="M350.001 289.538C350.001 322.123 323.586 348.538 291.001 348.538H59.001C26.4162 348.538 0.000976562 322.123 0.000976562 289.538V134.3C0.000976562 114.471 9.96167 95.9678 26.514 85.0494L136.66 12.3936C162.181 -4.44084 195.366 -4.09885 220.535 13.2579L324.496 84.9495C340.465 95.9622 350.001 114.121 350.001 133.52V289.538Z" fill="url(#paint0_linear_0_4)"/>
<mask id="mask0_0_4" style="mask-type:alpha" maskUnits="userSpaceOnUse" x="0" y="0" width="351" height="349">
<path id="Union_2" d="M350.001 289.538C350.001 322.123 323.586 348.538 291.001 348.538H59C26.4152 348.538 0 322.123 0 289.538V134.3C0 114.471 9.96076 95.9678 26.5132 85.0494L136.66 12.3936C162.181 -4.44083 195.366 -4.09884 220.535 13.2579L324.496 84.9495C340.465 95.9622 350.001 114.121 350.001 133.52V289.538Z" fill="#D9D9D9"/>
</mask>
<g mask="url(#mask0_0_4)">
<rect id="Rectangle 103" x="250.584" y="7.72266" width="101.626" height="321.843" rx="35" transform="rotate(55.5053 250.584 7.72266)" fill="url(#paint1_linear_0_4)"/>
<rect id="Rectangle 102" x="194.584" y="-30.2773" width="86.2635" height="264" rx="35" transform="rotate(55.5053 194.584 -30.2773)" fill="url(#paint2_linear_0_4)"/>
<path id="bottom" d="M349.448 117.723L349.449 118.256C349.234 166.673 259.189 225.323 170.57 271.34C136.173 289.201 148.638 348.723 187.396 348.723H290.859C323.499 348.723 349.938 322.221 349.859 289.581L349.449 118.256C349.45 118.078 349.449 117.9 349.448 117.723Z" fill="url(#paint3_linear_0_4)"/>
<path id="middle" d="M349.448 117.723L349.449 118.256C349.234 166.673 259.189 225.323 170.57 271.34C136.173 289.201 148.638 348.723 187.396 348.723H290.859C323.499 348.723 349.938 322.221 349.859 289.581L349.449 118.256C349.45 118.078 349.449 117.9 349.448 117.723Z" fill="url(#paint4_radial_0_4)"/>
<path id="top" d="M349.448 117.723L349.449 118.256C349.234 166.673 259.189 225.323 170.57 271.34C136.173 289.201 148.638 348.723 187.396 348.723H290.859C323.499 348.723 349.938 322.221 349.859 289.581L349.449 118.256C349.45 118.078 349.449 117.9 349.448 117.723Z" fill="url(#paint5_radial_0_4)"/>
<path id="Vector 12" d="M0.554266 117.723L0.552989 118.256C0.767545 166.673 90.813 225.323 179.432 271.34C213.829 289.201 201.364 348.723 162.606 348.723H59.1425C26.5025 348.723 0.0644526 322.221 0.142631 289.581L0.552989 118.256C0.5522 118.078 0.552625 117.9 0.554266 117.723Z" fill="url(#paint6_radial_0_4)"/>
<path id="Vector 14" d="M0.554266 117.723L0.552989 118.256C0.767545 166.673 90.813 225.323 179.432 271.34C213.829 289.201 201.364 348.723 162.606 348.723H59.1425C26.5025 348.723 0.0644526 322.221 0.142631 289.581L0.552989 118.256C0.5522 118.078 0.552625 117.9 0.554266 117.723Z" fill="url(#paint7_linear_0_4)"/>
</g>
</g>
<defs>
<linearGradient id="paint0_linear_0_4" x1="0.000973862" y1="49.247" x2="350.001" y2="299.291" gradientUnits="userSpaceOnUse">
<stop stop-color="#1A43A6"/>
<stop offset="0.49" stop-color="#2052CB"/>
<stop offset="1" stop-color="#5F20CB"/>
</linearGradient>
<linearGradient id="paint1_linear_0_4" x1="282.05" y1="283.252" x2="404.717" y2="234.836" gradientUnits="userSpaceOnUse">
<stop stop-color="#165AD9"/>
<stop offset="0.5008" stop-color="#1880E5"/>
<stop offset="1" stop-color="#8587FF"/>
</linearGradient>
<linearGradient id="paint2_linear_0_4" x1="200.05" y1="233.723" x2="104.83" y2="67.313" gradientUnits="userSpaceOnUse">
<stop stop-color="#20A7FA"/>
<stop offset="0.4" stop-color="#3BD5FF"/>
<stop offset="1" stop-color="#C4B0FF"/>
</linearGradient>
<linearGradient id="paint3_linear_0_4" x1="175.001" y1="117.723" x2="175.001" y2="348.723" gradientUnits="userSpaceOnUse">
<stop stop-color="#4DC4FF"/>
<stop offset="0.2" stop-color="#0FAFFF"/>
</linearGradient>
<radialGradient id="paint4_radial_0_4" cx="0" cy="0" r="1" gradientUnits="userSpaceOnUse" gradientTransform="translate(175.001 233.223) rotate(90) scale(115.5 175)">
<stop offset="0.26" stop-color="#0060D1" stop-opacity="0.4"/>
<stop offset="0.91" stop-color="#0383F1" stop-opacity="0"/>
</radialGradient>
<radialGradient id="paint5_radial_0_4" cx="0" cy="0" r="1" gradientUnits="userSpaceOnUse" gradientTransform="translate(350.001 256.723) rotate(152.268) scale(197.709 299.56)">
<stop offset="0.73" stop-color="#F4A7F7" stop-opacity="0"/>
<stop offset="1" stop-color="#F4A7F7" stop-opacity="0.5"/>
</radialGradient>
<radialGradient id="paint6_radial_0_4" cx="0" cy="0" r="1" gradientUnits="userSpaceOnUse" gradientTransform="translate(175.001 233.223) rotate(90) scale(115.5 175)">
<stop stop-color="#49DEFF"/>
<stop offset="0.72" stop-color="#29C3FF"/>
</radialGradient>
<linearGradient id="paint7_linear_0_4" x1="175.001" y1="117.723" x2="175.001" y2="348.723" gradientUnits="userSpaceOnUse">
<stop offset="0.21" stop-color="#6CE0FF"/>
<stop offset="0.54" stop-color="#50D5FF" stop-opacity="0"/>
</linearGradient>
</defs>
</svg>
